<?xml version="1.0" encoding="UTF-8"?>
<svg id="Capa_1" data-name="Capa 1" xmlns="http://www.w3.org/2000/svg" xmlns:xlink="http://www.w3.org/1999/xlink" viewBox="0 0 1000 710.61">
  <defs>
    <style>
      .cls-1, .cls-2, .cls-3 {
        fill: none;
      }

      .cls-2, .cls-3, .cls-4, .cls-5, .cls-6 {
        stroke: #eba817;
        stroke-linecap: round;
        stroke-linejoin: round;
      }

      .cls-2, .cls-5 {
        stroke-width: 5.45px;
      }

      .cls-7 {
        fill: #ffd64f;
      }

      .cls-3, .cls-4 {
        stroke-width: 5.52px;
      }

      .cls-8, .cls-4, .cls-5 {
        fill: #fff;
      }

      .cls-9, .cls-6 {
        fill: #eba817;
      }

      .cls-6 {
        stroke-width: 2.77px;
      }

      .cls-10 {
        clip-path: url(#clippath);
      }

      .cls-11 {
        fill: #f1d898;
      }
    </style>
    <clipPath id="clippath">
      <path class="cls-1" d="M468.07,361.27c0,79.61-65.47,123.16-146.24,123.16s-146.24-43.55-146.24-123.16,65.47-144.14,146.24-144.14,146.24,64.53,146.24,144.14Z"/>
    </clipPath>
  </defs>
  <g>
    <path class="cls-9" d="M471.27,372.36c0,81.35-66.9,121.12-149.43,121.12s-149.43-39.77-149.43-121.12,66.9-147.3,149.43-147.3,149.43,65.95,149.43,147.3Z"/>
    <g class="cls-10">
      <g>
        <g>
          <ellipse class="cls-11" cx="342.03" cy="554.6" rx="68.01" ry="15.03"/>
          <path class="cls-4" d="M381.21,427.05c-9.37-11.1-23.43-17.61-44.32-16.89-55.64,1.93-73.65,42.81-79.05,93.47-16.63,42.52,15.46,50.19,55.04,48.82,19.19-.67,39.8.17,56.02-4.21,1.59,2.31,3.85,4.22,6.34,5.37,6.5,3,29.05,4.51,25.85-8.03-.71-2.78-3.29-5.25-5.25-7.29,8.98-9.56,11.86-22.63,3.07-35.64.03-8.41-.2-16.73-.89-24.72,1.53.38,3.09.74,4.69,1.05,1.19-6.64.15-11.03-4.5-17.54,4.53.15,5.2,1.38,8.85,3.08,1.81-18.31-10.08-29.92-25.85-37.47Z"/>
          <path class="cls-11" d="M327.58,498.49c11.45,8.03,28.01,7.91,39.33-.3-.06,1.17-.12,2.34-.18,3.51,8.09-1.81,15.32-7.16,19.43-14.36-1.37,10.7-6.82,20.82-15,27.85-.68-1.8-1.37-3.61-2.05-5.41-1.71,2.79-4.13,5.13-6.98,6.74-.78-1.59-1.57-3.17-2.35-4.76-6.06,9.08-9.75,19.5-13.39,29.8-2.67-15.56-8.68-30.83-18.81-43.06Z"/>
          <path class="cls-4" d="M388.26,454.29c18.02-6.08,34.19-17.58,45.8-32.65-.5-1.57-1.81-2.86-3.38-3.33,7.37-3.21,13.35-9.49,16.19-17.01,2.84-7.52,2.5-16.18-.91-23.46-2.71,1.46-6.04,1.68-8.92.61,4.07-1.35,5.09-7.1,3.03-10.86-2.48-4.52-7.61-5.95-10.73-9.69-.68-.82-1.32-1.67-1.94-2.55-2.07-5.3-4.43-10.37-7.11-15.15,3.8-3.73,5.86-9.32,4.84-14.58-.23-1.17-.82-2.52-2.01-2.64-.84-.09-1.58.51-2.21,1.06-1.56,1.37-3.11,2.73-4.67,4.1,1.3-5.31,2.16-11.26,2.46-17.89,1.16-25.67-16.44-57.05-21.38-59.48-5.62-2.77-30.41,8.41-45.49,26.05-4.23,4.95-7.77,9.89-10.63,14.77-9.57-.56-19.85-.06-30.89,1.64-11.56,1.78-21.92,4.57-31.2,8.22-4.25-3.97-9.2-7.8-14.87-11.42-19.56-12.48-46.53-15.96-51.1-11.67-4.02,3.77-11.72,38.92-3.13,63.13,2.89,8.14,6.33,14.9,10.16,20.44-2.06-.85-4.12-1.71-6.18-2.56-.78-.32-1.67-.65-2.44-.29-1.08.5-1.21,1.97-1.05,3.15.69,5.01,4.07,9.4,8.48,11.82-.63,3.48-1.11,7.03-1.44,10.65-.57,1.97-1.28,3.9-2.13,5.74-2.04,4.42-6.63,7.15-7.84,12.15-1.01,4.17,1.47,9.45,5.75,9.7-2.5,1.79-5.78,2.44-8.77,1.74-1.4,7.92.54,16.37,5.24,22.89,4.7,6.52,12.11,11.03,20.06,12.21-1.4.87-2.33,2.45-2.4,4.1,14.15,10.77,33.69,18.37,54.3,16.81"/>
          <path class="cls-11" d="M227.45,452.23c8.34,6.35,18.58,12.03,28.91,14.29,1.9.42,4.99.24,6,2.21,1.34,2.6-1.05,8.74-1.53,11.46-1.61,9.24-3.23,18.48-4.84,27.72-.34,1.93-.67,3.98.03,5.81,1.35,3.53,5.69,4.65,9.42,5.29,6.44-11.28,11.61-23.27,15.4-35.69.67,3.68.67,7.48,0,11.16,9.2-4.02,16.88-11.43,21.23-20.48.46,1.46.92,2.93,1.38,4.39,3.99-2.56,7.23-6.27,9.23-10.57,2.54.83,6.18-.17,8.95.14,3.35.37,6.66,1.16,9.82,2.34,3.16,1.17,6.18,2.73,8.97,4.63.93.63,7.58,5.22,7.21,6.35,1.31-3.99,1.56-8.33.73-12.45,9.4,3.42,17.89,9.31,24.37,16.92,4.98-4.79,8-11.56,8.24-18.47,3.96,1.25,7.92,2.51,11.88,3.76-.33-5.27-3.09-10.34-7.32-13.49,11.42-6.43,22.93-11.92,30.68-22.93,1.59-2.25,2.71-7.59,4.54-9.2-13.66,11.99-30.59,19.85-48.12,24.65-17.53,4.8-35.74,6.65-53.89,7.66-22.94,1.28-46.93,1.04-67.49-9.2,1.54-1.44,2.31-3.65,2-5.73-15.44-1.31-30.64-5.28-44.74-11.69,5.22,9.15,10.16,15.36,21.37,17.02-1.4.87-2.33,2.45-2.4,4.1Z"/>
          <path class="cls-3" d="M264.2,469.99c-3.9,11.83-4.89,19.74-6.37,33.64-16.63,42.52,15.46,50.19,55.04,48.82,19.19-.67,39.8.17,56.02-4.21,1.59,2.31,3.85,4.22,6.34,5.37,6.5,3,29.05,4.51,25.85-8.03-.71-2.78-3.29-5.25-5.25-7.29,8.98-9.56,11.86-22.63,3.07-35.64.03-8.41-.2-16.73-.89-24.72,1.53.38,3.09.74,4.69,1.05,1.19-6.64.15-11.03-4.5-17.54,4.53.15,5.2,1.38,8.85,3.08"/>
          <path class="cls-3" d="M388.26,454.29c18.02-6.08,34.19-17.58,45.8-32.65-.5-1.57-1.81-2.86-3.38-3.33,7.37-3.21,13.35-9.49,16.19-17.01,2.84-7.52,2.5-16.18-.91-23.46-2.71,1.46-6.04,1.68-8.92.61,4.07-1.35,5.09-7.1,3.03-10.86-2.48-4.52-7.61-5.95-10.73-9.69-.68-.82-1.32-1.67-1.94-2.55-2.07-5.3-4.43-10.37-7.11-15.15,3.8-3.73,5.86-9.32,4.84-14.58-.23-1.17-.82-2.52-2.01-2.64-.84-.09-1.58.51-2.21,1.06-1.56,1.37-3.11,2.73-4.67,4.1,1.3-5.31,2.16-11.26,2.46-17.89,1.16-25.67-16.44-57.05-21.38-59.48-5.62-2.77-30.41,8.41-45.49,26.05-4.23,4.95-7.77,9.89-10.63,14.77-9.57-.56-19.85-.06-30.89,1.64-11.56,1.78-21.92,4.57-31.2,8.22-4.25-3.97-9.2-7.8-14.87-11.42-19.56-12.48-46.53-15.96-51.1-11.67-4.02,3.77-11.72,38.92-3.13,63.13,2.89,8.14,6.33,14.9,10.16,20.44-2.06-.85-4.12-1.71-6.18-2.56-.78-.32-1.67-.65-2.44-.29-1.08.5-1.21,1.97-1.05,3.15.69,5.01,4.07,9.4,8.48,11.82-.63,3.48-1.11,7.03-1.44,10.65-.57,1.97-1.28,3.9-2.13,5.74-2.04,4.42-6.63,7.15-7.84,12.15-1.01,4.17,1.47,9.45,5.75,9.7-2.5,1.79-5.78,2.44-8.77,1.74-1.4,7.92.54,16.37,5.24,22.89,4.7,6.52,12.11,11.03,20.06,12.21-1.4.87-2.33,2.45-2.4,4.1,14.15,10.77,33.69,18.37,54.3,16.81"/>
          <g>
            <path class="cls-6" d="M351.59,393.03c-1.58,2.04-2.63,2.47-4.67,1.95-2.29-.81-2.91-1.76-3.04-4.18-.08-1.57-2.5-1.21-2.41.35.17,3.08,1.3,4.8,4.08,5.92.07.04.13.09.22.12.13.04.25.06.38.1.13.04.24.09.37.14.09.03.17.02.26.03,2.71.59,4.62-.21,6.63-2.8.96-1.23-.85-2.87-1.82-1.63Z"/>
            <path class="cls-6" d="M334.73,395.96c2.16,1.4,3.3,1.47,5.05.31,1.9-1.51,2.17-2.62,1.5-4.95-.44-1.51,1.96-1.96,2.4-.46.86,2.97.35,4.97-1.91,6.93-.06.06-.09.13-.17.19-.11.08-.22.14-.33.22-.11.08-.19.17-.31.25-.08.06-.15.07-.23.11-2.37,1.45-4.44,1.32-7.18-.46-1.31-.85-.14-2.99,1.18-2.13Z"/>
            <g>
              <g>
                <ellipse class="cls-11" cx="399.2" cy="399.15" rx="15.29" ry="14.78" transform="translate(-63.05 75.1) rotate(-9.96)"/>
                <path class="cls-9" d="M357.98,385.22c1.57,8.93,8.63,12.43,16.36,11.07,7.73-1.35,13.18-7.05,11.62-15.98-1.57-8.93-9.1-15.07-16.82-13.71-7.73,1.35-12.72,9.69-11.15,18.62Z"/>
              </g>
              <g>
                <ellipse class="cls-11" cx="283.36" cy="420.5" rx="19.6" ry="14.78" transform="translate(-68.24 55.14) rotate(-9.93)"/>
                <path class="cls-9" d="M320.89,393.29c1.57,8.93-3.89,14.62-11.62,15.98-7.73,1.35-14.79-2.15-16.36-11.07-1.57-8.93,3.43-17.27,11.15-18.62,7.73-1.35,15.26,4.79,16.82,13.71Z"/>
              </g>
            </g>
            <path class="cls-9" d="M347.67,386.49c-.15-2.77-3.01-3.14-6.47-2.53-3.46.61-6.02,1.93-5.22,4.58.72,2.39,2.36,3.78,6.56,3.05,4.19-.74,5.26-2.61,5.13-5.1Z"/>
          </g>
          <path class="cls-4" d="M306.44,528.5c3.86,3.48,4.13,7.27,4.83,11.97.56,3.71,3.88,4.94,4.88,8.84,3.01,11.77-11.79,10.75-21.6,9.87-13.46-1.2-22.44-7.44-22.78-23.74"/>
          <path class="cls-5" d="M285.59,514.48c-1.68-1.22-3.45-2.32-5.28-3.3l1.94-.99c-7.33-5.04-17.11-6.33-25.49-3.35.42-2.42,1.41-5.81,1.94-8.35.58-2.79,1.24-4.99.93-7.57-.45-3.81-4.37-4.95-7.71-5.82-2.34-.61-4.8-.4-7.18-.12-1.53.18-3.16.77-3.9,2.12-.74,1.35.06,3.48,1.6,3.49-.09.04-.18.08-.27.12-16.48,7.4-26.95,24.89-27.55,42.73-.07,2.15.12,4.56,1.73,5.97,1.62,1.41,4.94.48,4.73-1.66,1.49,8.25,3.9,16.55,8.83,23.33,4.93,6.79,12.73,11.9,21.12,11.89-.81-2.13-1.62-4.26-2.44-6.4,7.71,4.58,17.37,3.26,26.29,2.34,4.71-.49,9.66-.8,14.34.11,3.34.65,5.13,4.74,8.31,5.27,7.28,1.22,7.15-13.88,7.2-17.96.11-9.75-1.5-20.54-6.88-28.89-3.24-5.03-7.41-9.45-12.26-12.96Z"/>
          <path class="cls-11" d="M275.95,545.45c-2.45-.76-4.97-1.29-7.52-1.58-3.2-.36-6.47-.34-9.6-1.12-3.13-.77-6.22-2.5-7.68-5.38-.96,4.18.12,8.78,2.85,12.09-11.29-5.96-18.93-18.29-19.23-31.06-2.93.48-5.68,2.02-7.63,4.27.79-10.42,4.88-20.57,11.53-28.63-14.98,7.81-23.51,22.52-24.08,39.39-.07,2.15.12,4.56,1.73,5.97,1.62,1.41,4.94.48,4.73-1.66,1.49,8.25,3.9,16.55,8.83,23.33,4.93,6.79,12.73,11.9,21.12,11.89-.81-2.13-1.62-4.26-2.44-6.4,7.71,4.58,17.37,3.26,26.29,2.34,4.71-.49,9.66-.8,14.34.11,3.14.61,4.95,5.13,8.01,5.34,3.07.2,3.82-3.74,3.51-6.29-.33-2.65-1.7-5.05-3.26-7.22-5.24-7.29-12.95-12.74-21.52-15.41Z"/>
          <path class="cls-2" d="M285.59,514.48c-1.68-1.22-3.45-2.32-5.28-3.3l1.94-.99c-7.33-5.04-17.11-6.33-25.49-3.35.42-2.42,1.41-5.81,1.94-8.35.58-2.79,1.24-4.99.93-7.57-.45-3.81-4.37-4.95-7.71-5.82-2.34-.61-4.8-.4-7.18-.12-1.53.18-3.16.77-3.9,2.12-.74,1.35.06,3.48,1.6,3.49-.09.04-.18.08-.27.12-16.48,7.4-26.95,24.89-27.55,42.73-.07,2.15.12,4.56,1.73,5.97,1.62,1.41,4.94.48,4.73-1.66,1.49,8.25,3.9,16.55,8.83,23.33,4.93,6.79,12.73,11.9,21.12,11.89-.81-2.13-1.62-4.26-2.44-6.4,7.71,4.58,17.37,3.26,26.29,2.34,4.71-.49,9.66-.8,14.34.11,3.34.65,5.13,4.74,8.31,5.27,7.28,1.22,7.15-13.88,7.2-17.96.11-9.75-1.5-20.54-6.88-28.89-3.24-5.03-7.41-9.45-12.26-12.96Z"/>
          <path class="cls-4" d="M326.54,495.98c7.92.39,13.77,8.33,21.65,9.27,7.14.86,13.49-4.19,18.91-8.92.28,1.4.57,2.81.85,4.21,8.79-1.18,16.51-8.14,18.58-16.76"/>
          <path class="cls-11" d="M244.38,338.73c-2.12.08-4.25-.21-6.23-.83-.61-.19-.85-.83-.49-1.3,1.65-2.15,3.93-3.95,6.58-5.21-4.73-.52-9.17-2.67-12.04-5.87-.45-.5-.34-1.23.23-1.64,3.91-2.78,9.13-4.2,14.19-3.86l-.79-4.51c-.2-1.17,1.06-2.12,2.42-1.87,2.62.47,5.12,1.37,7.35,2.61,1.38.77,6.11,4.11,6.18,5.48-.3-5.33-3.82-8.44-7.74-12.14-4.95-4.67-10.6-8.67-16.98-12.02-1.68-.88-3.52-1.57-5.46-1.93-16.22-3.06-15.05,17.03-14.68,24.74.27,5.65,1.4,11.53,3,17.01,1.02,3.47,3.53,8.45,6.17,11.31,6.15,6.69,15.57-5.61,18.65-10.01-.12,0-.24.01-.36.02Z"/>
          <path class="cls-11" d="M391.22,318.21c1.6-.59,3.13-1.53,4.45-2.75.41-.37.43-1.07.05-1.41-1.77-1.56-3.92-2.6-6.21-2.99,3.41-1.98,6.19-5.45,7.55-9.45.21-.62-.05-1.3-.58-1.52-3.61-1.47-7.86-1.21-11.56.7l-.53-4.61c-.14-1.19-1.32-1.72-2.27-1.05-1.84,1.28-3.49,2.93-4.84,4.83-.84,1.18-3.55,5.89-3.26,7.24-1.09-5.26.76-9.37,2.78-14.17,2.54-6.07,5.78-11.71,9.71-16.95,1.04-1.38,2.24-2.62,3.6-3.58,11.37-8.03,15.47,11.79,17.1,19.38,1.2,5.56,1.81,11.6,1.97,17.41.1,3.68-.55,9.28-1.81,12.89-2.94,8.4-13.03-.57-16.42-3.86.09-.03.18-.06.28-.1Z"/>
          <path class="cls-11" d="M353.17,348.81c1.87-2.03,5.26-2.92,7.41-1.19,1.69,1.36,2.06,3.92,1.32,5.96-.74,2.04-2.39,3.63-4.15,4.89-1.36.97-2.95,1.83-4.61,1.63-5.55-.67-2.08-8.99.03-11.29Z"/>
          <path class="cls-11" d="M308.85,355.33c-2.68-.64-5.99.52-6.81,3.16-.64,2.07.48,4.4,2.24,5.68,1.76,1.28,4.01,1.67,6.18,1.74,1.67.05,3.47-.14,4.73-1.23,4.23-3.66-3.31-8.62-6.34-9.34Z"/>
          <path class="cls-4" d="M390.2,508.23c-2.11,16-7.95,28.63-9.72,33.46,3.92,2.38,4.71,10.38,2.09,14.14-2.62,3.76-6.22,3.79-12.21,3.77-4.91-.02-11.17.24-15.26-2.49-11.97-8.01-4.98-24.37-1.62-37"/>
          <path class="cls-4" d="M342.7,520.98c3.79,18.11.68,19.01,6.66,22.29,4.59,4.18,4.42,10.42,1.8,14.18-2.62,3.76-8.62,4.13-15.62,3.95-4.91-.13-11.35-.38-15.8-4.67-5.09-4.91-11.35-20.88-14.84-40.15"/>
          <path class="cls-11" d="M376.1,544.18c-1.38-.15-2.88-.24-3.31-.27-2.48-.12-4.97-.16-7.45-.26-1.86-.07-6.54-.38-4.39-3.55.69-1.02,1.91-1.51,3.05-1.95,5.66-2.18,11.31-4.37,16.97-6.55-.11,2.31-1.38,4.37-2.27,6.5-.89,2.13-1.37,4.75-.02,6.63-.15-.22-1.32-.4-2.58-.54Z"/>
          <path class="cls-11" d="M345.64,544.21c-1.25.29-2.95-4.19-3.15-5.01-.52-2.17.3-4.61-.91-6.64-.47,2-1.74,3.5-3.45,4.59-3.29,2.08-7.13,2.49-8.93,6.43-.44.95-.67,2.16-.03,2.99.81,1.07,2.44.87,3.75.57,4.24-.98,8.49-1.96,12.73-2.94Z"/>
          <path class="cls-8" d="M378.64,375.06c-.85-2.74-3.58-5.21-5.76-3.53-3.21,2.46-.58,10.05,3.82,8.39,2.19-.83,2.55-2.91,1.95-4.86Z"/>
          <path class="cls-8" d="M313.74,389.37c-.85-2.74-3.58-5.21-5.76-3.53-3.21,2.46-.58,10.05,3.82,8.39,2.19-.83,2.55-2.91,1.95-4.86Z"/>
        </g>
        <g>
          <g>
            <path class="cls-7" d="M352.55,247.91c-.75-5.12-5.5-8.66-10.62-7.91s-8.66,5.5-7.91,10.62c.26,1.77,1.01,3.35,2.08,4.63-4.78,2.6-9.83,3.25-14.58,1.39-4.68-1.83-8.46-5.85-11.13-11.26,3.1-1.9,4.95-5.52,4.39-9.35-.75-5.12-5.5-8.66-10.62-7.91-5.12.75-8.66,5.5-7.91,10.62.56,3.83,3.36,6.77,6.88,7.7-1.02,5.95-3.49,10.88-7.45,13.97-4.21,3.28-9.51,4.04-15.11,2.67.5-1.4.68-2.94.45-4.51-.75-5.12-5.5-8.66-10.62-7.91s-8.66,5.5-7.91,10.62c.75,5.12,5.5,8.66,10.62,7.91.45-.07.88-.17,1.3-.3l7.25,33.55c23.17,2.98,44.49-.19,63.99-9.33l-1.6-34.51c.2-.02.4-.03.6-.06,5.12-.75,8.66-5.5,7.91-10.62Z"/>
            <path class="cls-3" d="M352.55,247.91c-.75-5.12-5.5-8.66-10.62-7.91s-8.66,5.5-7.91,10.62c.26,1.77,1.01,3.35,2.08,4.63-4.78,2.6-9.83,3.25-14.58,1.39-4.68-1.83-8.46-5.85-11.13-11.26,3.1-1.9,4.95-5.52,4.39-9.35-.75-5.12-5.5-8.66-10.62-7.91-5.12.75-8.66,5.5-7.91,10.62.56,3.83,3.36,6.77,6.88,7.7-1.02,5.95-3.49,10.88-7.45,13.97-4.21,3.28-9.51,4.04-15.11,2.67.5-1.4.68-2.94.45-4.51-.75-5.12-5.5-8.66-10.62-7.91s-8.66,5.5-7.91,10.62c.75,5.12,5.5,8.66,10.62,7.91.45-.07.88-.17,1.3-.3l7.25,33.55c23.17,2.98,44.49-.19,63.99-9.33l-1.6-34.51c.2-.02.4-.03.6-.06,5.12-.75,8.66-5.5,7.91-10.62Z"/>
          </g>
          <polygon class="cls-4" points="315.07 289.51 306 280.45 312.58 269.45 321.66 278.51 315.07 289.51"/>
        </g>
      </g>
    </g>
  </g>
  <g>
    <path class="cls-9" d="M552.93,407.37c-2.96,0-5.25-.82-6.85-2.46-1.6-1.64-2.4-3.98-2.4-7.03v-67.74c0-3.04.8-5.36,2.4-6.97,1.6-1.6,3.88-2.4,6.85-2.4s5.36.8,6.97,2.4c1.6,1.6,2.4,3.92,2.4,6.97v28.47h.24l31.95-33.39c1.36-1.44,2.8-2.54,4.32-3.3,1.52-.76,3.2-1.14,5.04-1.14,2.8,0,4.82.72,6.07,2.16,1.24,1.44,1.78,3.12,1.62,5.04-.16,1.92-1.04,3.68-2.64,5.28l-32.07,32.79.12-7.81,33.51,35.79c1.92,1.92,2.9,3.95,2.94,6.07.04,2.12-.64,3.86-2.04,5.22-1.4,1.36-3.46,2.04-6.19,2.04-2.32,0-4.17-.48-5.53-1.44-1.36-.96-2.92-2.32-4.68-4.08l-32.43-34.11h-.24v30.15c0,3.04-.78,5.39-2.34,7.03-1.56,1.64-3.9,2.46-7.03,2.46Z"/>
    <path class="cls-9" d="M632.93,336.75c-3.28,0-5.81-.8-7.57-2.4-1.76-1.6-2.64-3.88-2.64-6.85s.88-5.11,2.64-6.67c1.76-1.56,4.28-2.34,7.57-2.34s5.95.78,7.75,2.34,2.7,3.78,2.7,6.67-.9,5.25-2.7,6.85c-1.8,1.6-4.38,2.4-7.75,2.4ZM632.93,407.37c-2.8,0-5-.86-6.61-2.58-1.6-1.72-2.4-4.14-2.4-7.27v-41.2c0-3.2.8-5.62,2.4-7.27,1.6-1.64,3.8-2.46,6.61-2.46,2.96,0,5.23.82,6.79,2.46,1.56,1.64,2.34,4.07,2.34,7.27v41.2c0,3.12-.76,5.55-2.28,7.27-1.52,1.72-3.8,2.58-6.85,2.58Z"/>
    <path class="cls-9" d="M679.65,407.61c-6.33,0-11.81-1.24-16.46-3.72-4.64-2.48-8.27-6.02-10.87-10.63-2.6-4.6-3.9-10.07-3.9-16.4,0-4.72.72-8.97,2.16-12.73,1.44-3.76,3.54-6.99,6.31-9.67,2.76-2.68,6.08-4.72,9.97-6.13,3.88-1.4,8.15-2.1,12.79-2.1,6.32,0,11.83,1.24,16.52,3.72,4.68,2.48,8.33,6.03,10.93,10.63,2.6,4.61,3.9,10.03,3.9,16.28,0,4.73-.74,9.01-2.22,12.85-1.48,3.84-3.58,7.09-6.31,9.73-2.72,2.64-6.01,4.67-9.85,6.07-3.84,1.4-8.17,2.1-12.97,2.1ZM679.65,394.16c2.64,0,4.92-.62,6.85-1.86,1.92-1.24,3.44-3.14,4.56-5.71,1.12-2.56,1.68-5.8,1.68-9.73,0-5.84-1.2-10.15-3.6-12.91-2.4-2.76-5.57-4.14-9.49-4.14-2.56,0-4.83.6-6.79,1.8-1.96,1.2-3.48,3.08-4.56,5.64-1.08,2.56-1.62,5.77-1.62,9.61,0,5.93,1.2,10.29,3.6,13.09,2.4,2.8,5.53,4.2,9.37,4.2Z"/>
    <path class="cls-9" d="M739.83,407.61c-3.44,0-7.05-.3-10.81-.9-3.76-.6-7.13-1.66-10.09-3.18-1.68-.8-2.86-1.82-3.54-3.06-.68-1.24-.98-2.52-.9-3.84.08-1.32.5-2.48,1.26-3.48.76-1,1.76-1.68,3-2.04,1.24-.36,2.62-.22,4.14.42,3.28,1.36,6.31,2.32,9.07,2.88,2.76.56,5.42.84,7.99.84,3.36,0,5.84-.56,7.45-1.68,1.6-1.12,2.4-2.56,2.4-4.32,0-1.52-.52-2.66-1.56-3.42-1.04-.76-2.56-1.34-4.56-1.74l-12.73-2.28c-4.88-.96-8.67-2.8-11.35-5.53-2.68-2.72-4.02-6.25-4.02-10.57,0-4.08,1.12-7.57,3.36-10.45,2.24-2.88,5.34-5.11,9.31-6.67,3.96-1.56,8.47-2.34,13.51-2.34,3.6,0,6.91.32,9.91.96,3,.64,5.95,1.72,8.83,3.24,1.44.64,2.46,1.56,3.06,2.76s.78,2.44.54,3.72c-.24,1.28-.74,2.42-1.5,3.42-.76,1-1.76,1.68-3,2.04-1.24.36-2.7.18-4.38-.54-2.56-1.04-4.92-1.82-7.09-2.34-2.16-.52-4.17-.78-6.01-.78-3.68,0-6.35.56-7.99,1.68-1.64,1.12-2.46,2.56-2.46,4.32,0,1.36.48,2.5,1.44,3.42.96.92,2.4,1.54,4.32,1.86l12.73,2.16c5.12.96,9.05,2.74,11.77,5.34,2.72,2.6,4.08,6.11,4.08,10.51,0,6.25-2.38,11.07-7.15,14.47-4.77,3.4-11.11,5.1-19.04,5.1Z"/>
    <path class="cls-9" d="M780.54,407.37c-2.8,0-5-.78-6.61-2.34-1.6-1.56-2.4-3.82-2.4-6.79v-68.34c0-3.04.8-5.33,2.4-6.85,1.6-1.52,3.8-2.28,6.61-2.28,2.96,0,5.23.76,6.79,2.28,1.56,1.52,2.34,3.8,2.34,6.85v42.04h.24l17.42-19.34c1.76-2.08,3.36-3.62,4.8-4.62,1.44-1,3.44-1.5,6.01-1.5s4.48.64,5.77,1.92c1.28,1.28,1.94,2.82,1.98,4.62.04,1.8-.74,3.66-2.34,5.59l-18.38,20.3v-6.85l20.42,23.54c1.52,1.92,2.18,3.8,1.98,5.65-.2,1.84-1.04,3.32-2.52,4.44-1.48,1.12-3.3,1.68-5.46,1.68-2.72,0-4.91-.5-6.55-1.5-1.64-1-3.3-2.54-4.98-4.62l-18.14-20.3h-.24v17.3c0,6.09-3.04,9.13-9.13,9.13Z"/>
  </g>
</svg>